<svg id="图层_1" data-name="图层 1" xmlns="http://www.w3.org/2000/svg" viewBox="0 0 32 32"><defs><style>.cls-1{fill:#8c41eb;}.cls-2{fill:#fff;}.cls-3{fill:none;}.cls-4{fill:#d4c5ff;}</style></defs><title>画板 8</title><circle class="cls-1" cx="15.98" cy="16.01" r="16.01"/><polygon class="cls-2" points="16.35 7.19 16.35 7.2 12.27 11.27 6.63 11.27 6.63 12.87 6.63 15.29 6.63 24.83 10.64 24.83 10.64 15.29 13.97 15.29 13.97 24.83 17.98 24.83 17.98 15.29 17.98 12.87 17.98 11.2 18.02 11.2 21.31 11.2 21.31 20.73 25.33 20.73 25.33 11.2 25.33 11.18 25.33 7.19 16.35 7.19"/><path class="cls-3" d="M10.64,15.29V21A23.5,23.5,0,0,0,14,19.55V15.29Z"/><path class="cls-3" d="M18,11.2h0v5.66a25.32,25.32,0,0,0,3.33-3.3V11.2Z"/><path class="cls-2" d="M10.64,15.29H14v4.26a24.43,24.43,0,0,0,4-2.69V11.2h3.33v2.36a25.37,25.37,0,0,0,2.82-4.14l1.2-2.19v0h-9l-4.08,4.07H6.63V22a23.83,23.83,0,0,0,4-1Z"/><path class="cls-4" d="M14,24.83h4v-8a24.43,24.43,0,0,1-4,2.69Z"/><path class="cls-4" d="M10.64,24.83V21a23.83,23.83,0,0,1-4,1v2.79Z"/><path class="cls-4" d="M21.31,13.56v7.17h4V7.23l-1.2,2.19A25.37,25.37,0,0,1,21.31,13.56Z"/></svg>